<?xml version="1.0" encoding="UTF-8"?>
<svg version="1.1" xmlns="http://www.w3.org/2000/svg" width="260" height="237">
<path d="M0 0 C3.3646151 0.13420438 6.73051296 0.19261074 10.0970459 0.25787354 C16.67524024 0.40051911 23.2477414 0.61747216 29.82165527 0.89263916 C30.31665527 1.88263916 30.31665527 1.88263916 30.82165527 2.89263916 C25.87444409 9.44957199 20.8720721 15.91891046 15.50915527 22.14263916 C11.27234781 27.06621093 7.29460879 32.14424762 3.38415527 37.33013916 C-1.15096232 43.33918673 -5.856124 49.12448708 -10.8013916 54.7991333 C-14.67091509 59.25431096 -18.33838072 63.83805246 -21.95959473 68.49615479 C-25.51878525 73.07007154 -29.14417418 77.5858442 -32.80334473 82.08013916 C-33.6324939 83.09865967 -33.6324939 83.09865967 -34.47839355 84.13775635 C-37.57701112 87.93907218 -40.68842221 91.72967089 -43.80334473 95.51763916 C-45.2626662 97.30850108 -46.72092077 99.10023268 -48.17834473 100.89263916 C-48.89546631 101.76396484 -48.89546631 101.76396484 -49.6270752 102.65289307 C-51.17477015 104.53757431 -52.70872504 106.43278492 -54.24084473 108.33013916 C-54.97585205 109.21790039 -54.97585205 109.21790039 -55.72570801 110.12359619 C-58.35694821 113.41099661 -59.17834473 114.53594221 -59.17834473 118.89263916 C-57.64478672 121.16776293 -56.10512969 123.22346513 -54.36584473 125.33013916 C-53.86955566 125.94631104 -53.3732666 126.56248291 -52.86193848 127.19732666 C-49.08535075 131.8608403 -45.20494692 136.43677081 -41.30603027 140.99810791 C-35.58587283 147.71267869 -30.212597 154.69796631 -24.80334473 161.66314697 C-19.43606725 168.56665515 -13.98390003 175.36009275 -8.2989502 182.00494385 C-4.55898077 186.39540034 -0.98655623 190.90084163 2.55603027 195.45123291 C6.0870196 199.97967685 9.6896867 204.4448828 13.32165527 208.89263916 C19.24836297 216.15389594 25.05856306 223.50109805 30.82165527 230.89263916 C30.49165527 231.55263916 30.16165527 232.21263916 29.82165527 232.89263916 C21.93805935 232.9940566 14.05463165 233.06411247 6.17053223 233.11236572 C3.48837704 233.13022241 0.80660067 233.15805352 -1.87536621 233.19439697 C-5.73037539 233.24291458 -9.58480471 233.2656091 -13.44006348 233.28326416 C-14.63918869 233.3039093 -15.8383139 233.32455444 -17.07377625 233.3458252 C-25.40085813 233.34806988 -25.40085813 233.34806988 -29.32214355 231.05108643 C-31.69800353 228.28836407 -33.99176352 225.4935437 -36.17834473 222.58013916 C-40.19814445 217.33647068 -44.37381777 212.28789686 -48.74084473 207.33013916 C-52.96340744 202.51655585 -57.06774346 197.64181507 -60.99084473 192.58013916 C-61.63098511 191.76210815 -61.63098511 191.76210815 -62.28405762 190.92755127 C-65.17834473 187.13953842 -65.17834473 187.13953842 -65.17834473 184.89263916 C-53.79334473 183.90263916 -53.79334473 183.90263916 -42.17834473 182.89263916 C-43.76646973 181.03638916 -45.35459473 179.18013916 -46.99084473 177.26763916 C-52.43329035 170.86174128 -57.64558306 164.29460845 -62.80334473 157.65875244 C-65.08463317 154.72856058 -67.38223231 151.81121872 -69.67834473 148.89263916 C-70.59119871 147.73125437 -71.50395902 146.56979593 -72.41662598 145.40826416 C-72.86989258 144.83140869 -73.32315918 144.25455322 -73.79016113 143.66021729 C-75.20548168 141.8580856 -76.61975857 140.05513906 -78.03381348 138.25201416 C-78.7390918 137.35361816 -78.7390918 137.35361816 -79.45861816 136.43707275 C-80.38661703 135.2537293 -81.31308565 134.06918398 -82.23791504 132.88336182 C-84.34353922 130.19045991 -86.47420075 127.54278134 -88.68225098 124.93170166 C-89.42346191 124.05256104 -90.16467285 123.17342041 -90.92834473 122.26763916 C-91.58318848 121.51224854 -92.23803223 120.75685791 -92.91271973 119.97857666 C-94.17834473 117.89263916 -94.17834473 117.89263916 -94.17834473 115.97857666 C-92.73293342 112.96353901 -90.62990394 110.62139227 -88.42834473 108.14263916 C-87.42421562 106.98510608 -86.42168099 105.8261884 -85.42053223 104.66607666 C-84.89169434 104.05473877 -84.36285645 103.44340088 -83.81799316 102.8135376 C-81.0020815 99.51461071 -78.2793679 96.14090247 -75.55334473 92.76763916 C-75.00146484 92.08628906 -74.44958496 91.40493896 -73.88098145 90.70294189 C-72.80526062 89.3747037 -71.72989033 88.04618152 -70.65490723 86.71734619 C-61.83309642 75.8155251 -61.83309642 75.8155251 -57.49865723 70.75201416 C-51.42539977 63.65581451 -45.71131477 56.4211066 -40.17834473 48.89263916 C-48.42834473 48.89263916 -56.67834473 48.89263916 -65.17834473 48.89263916 C-63.27446285 45.08487541 -61.06090299 42.00284842 -58.42834473 38.70513916 C-57.94881348 38.10000488 -57.46928223 37.49487061 -56.97521973 36.87139893 C-45.28972556 22.18814326 -45.28972556 22.18814326 -40.1072998 16.3303833 C-38.02728263 13.84117827 -38.02728263 13.84117827 -36.31774902 10.49981689 C-28.20609407 -3.16928758 -14.23942696 -0.62847902 0 0 Z " fill="#0031A1" transform="translate(161.1783447265625,2.10736083984375)"/>
<path d="M0 0 C1.88714973 0.01273453 1.88714973 0.01273453 3.81242371 0.02572632 C7.14578629 0.05359177 10.47665566 0.10741667 13.80932617 0.1739502 C17.21446258 0.23550349 20.61985737 0.26276872 24.02539062 0.29296875 C30.69860283 0.35909433 37.37064193 0.45947915 44.04296875 0.5859375 C44.53796875 1.5759375 44.53796875 1.5759375 45.04296875 2.5859375 C40.72671029 8.80642763 36.19657486 14.69137205 31.23046875 20.3984375 C27.23044785 24.99610489 23.34625347 29.64960151 19.60546875 34.4609375 C15.68173129 39.50756568 11.7053517 44.50462717 7.66796875 49.4609375 C6.85428833 50.46012207 6.85428833 50.46012207 6.02416992 51.47949219 C3.80984306 54.19646568 1.59335188 56.91166977 -0.62304688 59.62695312 C-2.27705078 61.6541283 -3.92996907 63.68217962 -5.58203125 65.7109375 C-6.12182617 66.37375732 -6.66162109 67.03657715 -7.21777344 67.71948242 C-10.72157635 72.03352651 -14.16655568 76.38927557 -17.58203125 80.7734375 C-21.12681668 85.32350844 -24.76748237 89.76785942 -28.51953125 94.1484375 C-38.38575054 105.12301049 -38.38575054 105.12301049 -45.95703125 117.5859375 C-45.36277344 118.28976563 -44.76851562 118.99359375 -44.15625 119.71875 C-39.51377458 125.24928837 -34.95303297 130.82379015 -30.51953125 136.5234375 C-26.91290275 141.1578914 -23.21662362 145.69011604 -19.39453125 150.1484375 C-15.33306261 154.88693711 -11.48663962 159.74523725 -7.71972656 164.7199707 C-4.81327654 168.53454367 -1.77395894 172.20292375 1.35546875 175.8359375 C5.61016636 180.78156891 9.61101676 185.88060545 13.54296875 191.0859375 C17.87206047 196.81537412 22.32296686 202.37991407 27.00195312 207.82617188 C30.44151367 211.84151789 33.76853518 215.93487105 37.04296875 220.0859375 C37.50010254 220.66174561 37.95723633 221.23755371 38.42822266 221.83081055 C40.88281059 224.9623199 43.07983315 228.12461947 45.04296875 231.5859375 C43.34748928 233.28141697 41.19012977 232.73955617 38.86816406 232.76293945 C37.21074188 232.78219231 37.21074188 232.78219231 35.51983643 232.80183411 C34.31575134 232.80922104 33.11166626 232.81660797 31.87109375 232.82421875 C30.02653595 232.83632637 30.02653595 232.83632637 28.14471436 232.84867859 C25.53529276 232.8625409 22.92585286 232.87325339 20.31640625 232.88110352 C17.64104395 232.88995803 14.96620199 232.9108126 12.29101562 232.94262695 C8.4425479 232.98519219 4.59476734 233.00145968 0.74609375 233.01171875 C-0.44989441 233.02922684 -1.64588257 233.04673492 -2.87811279 233.06477356 C-11.18932791 233.04301626 -11.18932791 233.04301626 -15.13085938 230.69628906 C-15.73349609 229.99987305 -16.33613281 229.30345703 -16.95703125 228.5859375 C-17.59125 227.86277344 -18.22546875 227.13960937 -18.87890625 226.39453125 C-19.4821875 225.61207031 -20.08546875 224.82960937 -20.70703125 224.0234375 C-21.39667969 223.14171875 -22.08632812 222.26 -22.796875 221.3515625 C-23.50972656 220.43890625 -24.22257812 219.52625 -24.95703125 218.5859375 C-29.30370361 213.19446867 -33.71236446 207.85895265 -38.20458984 202.58837891 C-50.95703125 187.62188189 -50.95703125 187.62188189 -50.95703125 184.5859375 C-39.57203125 183.5959375 -39.57203125 183.5959375 -27.95703125 182.5859375 C-29.38015625 180.8946875 -30.80328125 179.2034375 -32.26953125 177.4609375 C-36.51381674 172.3870265 -40.63558639 167.22735915 -44.70605469 162.01342773 C-48.10960652 157.65538087 -51.55529926 153.33336106 -55.01953125 149.0234375 C-59.61551224 143.30115701 -64.11152433 137.51250992 -68.55078125 131.66796875 C-70.20356004 129.55101669 -71.86188941 127.50250403 -73.61328125 125.47265625 C-74.44859375 124.49941406 -75.28390625 123.52617188 -76.14453125 122.5234375 C-77.27955078 121.23759766 -77.27955078 121.23759766 -78.4375 119.92578125 C-79.95703125 117.5859375 -79.95703125 117.5859375 -79.71386719 115.640625 C-78.88842321 113.39967772 -77.96569454 112.13418882 -76.3671875 110.37109375 C-75.83536865 109.77417725 -75.3035498 109.17726074 -74.75561523 108.56225586 C-73.89625366 107.61491577 -73.89625366 107.61491577 -73.01953125 106.6484375 C-68.79393482 101.89110141 -64.72682188 97.10403127 -60.89453125 92.0234375 C-56.89799132 86.73580755 -52.69236013 81.69152089 -48.35400391 76.68212891 C-43.78156081 71.40192293 -39.35681334 66.01075843 -34.95703125 60.5859375 C-33.27145378 58.52185817 -31.58289534 56.46024038 -29.89453125 54.3984375 C-28.59515625 52.8103125 -27.29578125 51.2221875 -25.95703125 49.5859375 C-34.20703125 49.2559375 -42.45703125 48.9259375 -50.95703125 48.5859375 C-49.21322557 45.09832613 -47.61331759 42.78565624 -45.14453125 39.8359375 C-43.94376953 38.38960937 -43.94376953 38.38960937 -42.71875 36.9140625 C-42.27837402 36.38490234 -41.83799805 35.85574219 -41.38427734 35.31054688 C-38.7178632 32.08859178 -36.09054252 28.83479098 -33.45703125 25.5859375 C-28.30519614 19.24050299 -23.15157783 12.89649994 -17.95703125 6.5859375 C-17.35802002 5.55791016 -16.75900879 4.52988281 -16.1418457 3.47070312 C-12.07641704 -1.35481727 -5.78564128 -0.14673892 0 0 Z " fill="#F2A900" transform="translate(214.95703125,2.4140625)"/>
<path d="M0 0 C3.3646151 0.13420438 6.73051296 0.19261074 10.0970459 0.25787354 C16.67524024 0.40051911 23.2477414 0.61747216 29.82165527 0.89263916 C30.31665527 1.88263916 30.31665527 1.88263916 30.82165527 2.89263916 C26.63394445 8.155744 22.41801274 13.39412073 18.16833496 18.60723877 C13.5209189 24.30846121 8.90621026 30.02887373 4.38415527 35.83013916 C-0.2778083 41.8061156 -5.07932725 47.65887879 -9.90979004 53.49908447 C-16.71531474 61.7349986 -23.41300041 70.05730215 -29.98303223 78.48248291 C-34.87706061 84.75778584 -39.85226425 90.92565218 -45.02941895 96.97003174 C-50.27449002 103.12264932 -55.22617951 109.50367553 -60.17834473 115.89263916 C-58.52276838 119.64708824 -56.12683027 122.74451881 -53.61584473 125.95513916 C-53.16894287 126.53094727 -52.72204102 127.10675537 -52.26159668 127.70001221 C-47.9943659 133.17502103 -43.59312728 138.5363153 -39.17834473 143.89263916 C-32.96243985 151.48370796 -26.77405327 159.09276683 -20.74084473 166.83013916 C-16.05750925 172.8354533 -11.22753357 178.71113575 -6.36999512 184.57598877 C-2.28882156 189.51435945 1.69510999 194.51726366 5.62927246 199.57305908 C9.94447169 205.09667217 14.41124956 210.49146959 18.8807373 215.89044189 C22.95570104 220.8197232 26.95830837 225.79476412 30.82165527 230.89263916 C28.25031988 233.46397456 27.17662168 233.18279223 23.59680176 233.27838135 C22.50483994 233.3105072 21.41287811 233.34263306 20.28782654 233.37573242 C15.27170178 233.46472554 10.25611054 233.54682368 5.23937988 233.59283447 C2.59806998 233.62588527 -0.04306354 233.68037762 -2.68347168 233.75689697 C-6.49650572 233.86683089 -10.30534252 233.9102373 -14.11975098 233.93951416 C-15.29195694 233.98485291 -16.4641629 234.03019165 -17.67189026 234.0769043 C-22.69930613 234.05118083 -25.90227148 233.92042585 -29.90283203 230.69825745 C-32.17722718 228.19032709 -34.20458997 225.64059964 -36.17834473 222.89263916 C-36.9904541 221.92713135 -37.80256348 220.96162354 -38.63928223 219.96685791 C-39.27092285 219.17924072 -39.90256348 218.39162354 -40.55334473 217.58013916 C-43.41280138 214.04318058 -46.31147851 210.55080015 -49.2713623 207.09820557 C-65.17834473 188.52211816 -65.17834473 188.52211816 -65.17834473 184.89263916 C-57.48570373 184.04463149 -49.91542799 183.77111429 -42.17834473 183.89263916 C-42.84479004 183.04443604 -43.51123535 182.19623291 -44.19787598 181.32232666 C-45.12886556 180.13743083 -46.05985514 178.95253499 -46.99084473 177.76763916 C-47.48713379 177.13599854 -47.98342285 176.50435791 -48.49475098 175.85357666 C-55.97131348 166.33795166 -55.97131348 166.33795166 -57.32702637 164.61236572 C-58.23619671 163.45532943 -59.14554229 162.2984308 -60.05505371 161.1416626 C-62.3267769 158.25191183 -64.59560237 155.35998566 -66.85803223 152.46295166 C-72.38027993 145.40028749 -77.97632835 138.40571426 -83.67590332 131.48492432 C-85.19285248 129.6330952 -86.69038969 127.76782226 -88.17834473 125.89263916 C-88.67108887 125.2814624 -89.16383301 124.67028564 -89.67150879 124.04058838 C-91.61546456 121.51126012 -93.06716379 119.41800822 -93.73303223 116.27154541 C-92.97590097 113.02441208 -91.49092049 111.33941724 -89.30334473 108.83013916 C-88.47834473 107.86592041 -87.65334473 106.90170166 -86.80334473 105.90826416 C-85.93709473 104.91310791 -85.07084473 103.91795166 -84.17834473 102.89263916 C-82.54820544 100.95946116 -80.92322643 99.02192043 -79.30334473 97.08013916 C-78.46674316 96.07982666 -77.6301416 95.07951416 -76.76818848 94.04888916 C-74.0636176 90.7800553 -71.46544483 87.43258795 -68.86584473 84.08013916 C-64.42734736 78.36275273 -59.75098308 72.89677842 -54.9732666 67.46148682 C-49.74743794 61.47945371 -44.95549055 55.23840003 -40.17834473 48.89263916 C-48.42834473 48.89263916 -56.67834473 48.89263916 -65.17834473 48.89263916 C-63.44605405 44.56191248 -62.56571276 42.90352992 -59.55334473 39.70513916 C-55.93133985 35.75682754 -52.55869914 31.68162265 -49.23303223 27.48248291 C-46.42101648 23.93806002 -43.5896031 20.41856251 -40.63293457 16.99346924 C-38.0967517 13.96963655 -38.0967517 13.96963655 -36.3404541 10.52203369 C-28.33858337 -3.20886475 -14.14471458 -0.62429874 0 0 Z " fill="#D90011" transform="translate(93.1783447265625,2.10736083984375)"/>
</svg>
